<?xml version="1.0" encoding="UTF-8" standalone="no"?>
<!-- Created with Inkscape (http://www.inkscape.org/) -->
<svg xmlns:dc="http://purl.org/dc/elements/1.1/" xmlns:cc="http://creativecommons.org/ns#" xmlns:rdf="http://www.w3.org/1999/02/22-rdf-syntax-ns#" xmlns:svg="http://www.w3.org/2000/svg" xmlns="http://www.w3.org/2000/svg" xmlns:sodipodi="http://sodipodi.sourceforge.net/DTD/sodipodi-0.dtd" xmlns:inkscape="http://www.inkscape.org/namespaces/inkscape" version="1.0" width="200" height="160" id="svg3594" sodipodi:version="0.32" inkscape:version="0.46" sodipodi:docname="Motorkontrollleuchte.svg" inkscape:output_extension="org.inkscape.output.svg.inkscape">
  <metadata id="metadata2435">
    <rdf:RDF>
      <cc:Work rdf:about="">
        <dc:format>image/svg+xml</dc:format>
        <dc:type rdf:resource="http://purl.org/dc/dcmitype/StillImage"/>
      </cc:Work>
    </rdf:RDF>
  </metadata>
  <sodipodi:namedview inkscape:window-height="960" inkscape:window-width="1280" inkscape:pageshadow="2" inkscape:pageopacity="0.0" guidetolerance="10.0" gridtolerance="10.0" objecttolerance="10.0" borderopacity="1.0" bordercolor="#666666" pagecolor="#ffffff" id="base" showgrid="true" inkscape:zoom="1.3525" inkscape:cx="5.819217" inkscape:cy="40" inkscape:window-x="-4" inkscape:window-y="-5" inkscape:current-layer="g2443">
    <inkscape:grid type="xygrid" id="grid2439" visible="true" enabled="true"/>
  </sodipodi:namedview>
  <defs id="defs3597">
    <inkscape:perspective sodipodi:type="inkscape:persp3d" inkscape:vp_x="0 : 40 : 1" inkscape:vp_y="0 : 1000 : 0" inkscape:vp_z="100 : 40 : 1" inkscape:persp3d-origin="50 : 26.666667 : 1" id="perspective2437"/>
  </defs>
  <g id="g2443" transform="translate(50,40)">
    <path id="path2441" d="M -50,-40 L -50,120 L 150,120 L 150,-40 L -50,-40 z" style="fill:#000000;fill-rule:evenodd;stroke:none;stroke-width:1px;stroke-linecap:butt;stroke-linejoin:miter;stroke-opacity:1"/>
    <path style="fill:#ffff00;fill-opacity:1;fill-rule:evenodd;stroke:none;stroke-width:1px;stroke-linecap:butt;stroke-linejoin:miter;stroke-opacity:1" id="path3607" d="M 88.577446,85.79741 L 31.74074,85.885416 C 25.482718,80.268002 20.613414,72.48145 13.904186,69.345672 L -9.589094,69.362384 L -11.60187,67.388508 L -12.161228,20.19665 L -9.549486,18.222822 L 0.004762,16.438602 C 5.559308,14.738074 6.26645,13.197726 8.34927,8.249508 L 73.062566,8.507596 L 74.43927,9.678468 L 74.553478,14.999574 L 85.303552,25.74724 L 89.76641,25.943562 L 91.400202,28.10407 L 90.877242,33.498546 L 92.701806,35.439722 L 114.28433,35.190802 L 116.4536,32.923462 C 115.76355,22.23385 125.98935,21.813596 126.38399,34.314252 L 127.893,39.475284 L 127.68875,65.85143 L 125.7487,68.147018 L 125.29699,76.150032 C 125.41207,80.558504 117.4428,82.509634 117.02042,75.902712 L 117.36728,71.554072 L 115.34533,69.333228 L 94.714762,69.366044 L 91.879718,72.166024 L 91.520762,83.189724 L 88.577446,85.79741 z M 27.556918,96.075084 C 21.764206,94.764008 14.047566,84.589378 6.608268,78.370178 L -14.552238,78.516416 L -22.032296,70.586592 L -22.053932,45.844956 L -26.227624,46.157456 L -26.083684,66.885148 C -26.46753,71.251234 -30.40254,70.985954 -33.809174,64.361104 L -33.665232,40.89851 L -37.263788,37.29995 L -37.263788,12.541878 C -34.813902,7.12369 -30.395879,3.457724 -25.553198,5.853622 L -25.87601,29.74804 L -22.461144,30.611694 L -22.173258,18.808426 L -15.295188,8.52595 L -11.883262,8.44458 L -6.701342,8.732466 C -3.888156,4.123708 -1.665098,-0.103428 2.947028,-1.833884 L 24.965962,-1.744974 L 25.186932,-8.427014 L 11.944242,-8.427014 L 8.489626,-11.161914 L 8.312656,-16.387964 L 10.869736,-18.750396 L 65.922592,-18.961252 L 67.362026,-16.946058 L 67.319638,-10.254234 L 65.922592,-9.14672 L 52.248086,-9.00278 L 52.027108,-2.176802 L 75.315422,-2.320744 C 79.824372,-0.219982 83.703936,1.11403 84.758808,3.98237 L 86.078902,10.463522 L 88.856144,12.88514 L 97.67195,13.1214 L 99.964914,15.280532 L 99.950412,24.345144 L 107.28581,24.032644 L 107.59833,14.536204 L 110.6211,12.8089 L 127.60119,13.34237 C 130.72698,13.89953 134.16156,16.46187 134.36649,18.95612 L 139.5238,39.967936 L 139.41328,69.433948 L 131.78433,92.320772 L 111.37237,92.296018 C 107.6236,92.2601 108.18983,84.253034 108.00797,80.008652 L 101.33549,80.229622 C 101.39099,91.451538 97.935918,95.490834 91.179412,95.787198 L 27.556918,96.075084 z"/>
  </g>
</svg>