<?xml version="1.0" encoding="UTF-8" standalone="no"?>
<!-- Created with Inkscape (http://www.inkscape.org/) -->

<svg
   xmlns:dc="http://purl.org/dc/elements/1.1/"
   xmlns:cc="http://creativecommons.org/ns#"
   xmlns:rdf="http://www.w3.org/1999/02/22-rdf-syntax-ns#"
   xmlns:svg="http://www.w3.org/2000/svg"
   xmlns="http://www.w3.org/2000/svg"
   xmlns:sodipodi="http://sodipodi.sourceforge.net/DTD/sodipodi-0.dtd"
   xmlns:inkscape="http://www.inkscape.org/namespaces/inkscape"
   id="svg10932"
   version="1.1"
   inkscape:version="0.91 r13725"
   width="120"
   height="80"
   viewBox="0 0 120 80"
   sodipodi:docname="check_engine.svg">
  <metadata
     id="metadata10938">
    <rdf:RDF>
      <cc:Work
         rdf:about="">
        <dc:format>image/svg+xml</dc:format>
        <dc:type
           rdf:resource="http://purl.org/dc/dcmitype/StillImage" />
        <dc:title></dc:title>
      </cc:Work>
    </rdf:RDF>
  </metadata>
  <defs
     id="defs10936" />
  <sodipodi:namedview
     pagecolor="#ffffff"
     bordercolor="#666666"
     borderopacity="1"
     objecttolerance="10"
     gridtolerance="10"
     guidetolerance="10"
     inkscape:pageopacity="0"
     inkscape:pageshadow="2"
     inkscape:window-width="1432"
     inkscape:window-height="1159"
     id="namedview10934"
     showgrid="false"
     width="120px"
     inkscape:zoom="9.5816548"
     inkscape:cx="62.5"
     inkscape:cy="45"
     inkscape:window-x="740"
     inkscape:window-y="64"
     inkscape:window-maximized="0"
     inkscape:current-layer="layer10" />
  <g
     inkscape:groupmode="layer"
     id="layer10"
     inkscape:label="background">
    <rect
       style="opacity:1;fill:#000000;fill-opacity:1;stroke:none;stroke-width:0;stroke-miterlimit:4;stroke-dasharray:none;stroke-opacity:0.39215686"
       id="rect10947"
       width="120"
       height="80"
       x="0"
       y="1.4210855e-14" />
  </g>
  <g
     inkscape:groupmode="layer"
     id="layer9"
     inkscape:label="image">
    <path
       style="fill:#ffab00;fill-opacity:1;fill-rule:evenodd;stroke:none;stroke-width:1px;stroke-linecap:butt;stroke-linejoin:miter;stroke-opacity:1"
       d="m 18.879755,23.301423 -4.905207,0 0.313099,35.067011 4.696474,-0.208732 0,-14.506889 3.652814,-0.104366 0.104366,15.759282 7.096895,-0.208732 16.698578,12.419567 37.154333,-0.208732 1.565492,-1.461126 0.417464,-1.252393 -0.104366,-7.201261 3.130984,0 0.104366,5.635769 1.148027,1.252394 11.584626,0.104366 1.66986,-1.774224 1.46113,-3.339716 1.2524,-4.905207 0.10436,-22.543079 -3.54845,-8.662386 -13.463222,0.104366 0,3.339715 -3.026617,-0.104366 -0.104366,-3.652814 -7.201262,-0.104366 0.208733,-4.070278 -1.252394,-2.609153 -2.609151,-2.922251 -1.35676,-0.52183 -11.689004,0.104366 -0.104366,-3.339715 11.584638,-0.208733 0.104366,-4.696474 -37.676164,0 0,4.696474 12.002102,0 -0.104366,3.339716 -11.689004,0 -6.366333,5.531403 -7.409994,0 0,15.02872 -3.444081,0 z"
       id="path10942"
       inkscape:connector-curvature="0"
       sodipodi:nodetypes="ccccccccccccccccccccccccccccccccccccccccccccc" />
  </g>
</svg>
