<?xml version="1.0" encoding="UTF-8" standalone="no"?>
<!-- Created with Inkscape (http://www.inkscape.org/) -->

<svg
   xmlns:dc="http://purl.org/dc/elements/1.1/"
   xmlns:cc="http://creativecommons.org/ns#"
   xmlns:rdf="http://www.w3.org/1999/02/22-rdf-syntax-ns#"
   xmlns:svg="http://www.w3.org/2000/svg"
   xmlns="http://www.w3.org/2000/svg"
   xmlns:sodipodi="http://sodipodi.sourceforge.net/DTD/sodipodi-0.dtd"
   xmlns:inkscape="http://www.inkscape.org/namespaces/inkscape"
   width="120"
   height="80"
   viewBox="0 0 120 80.000001"
   id="svg3346"
   version="1.1"
   inkscape:version="0.91 r13725"
   sodipodi:docname="fog_lights.svg">
  <defs
     id="defs3348" />
  <sodipodi:namedview
     id="base"
     pagecolor="#ffffff"
     bordercolor="#666666"
     borderopacity="1.0"
     inkscape:pageopacity="0.0"
     inkscape:pageshadow="2"
     inkscape:zoom="10.292337"
     inkscape:cx="56.930254"
     inkscape:cy="39.855439"
     inkscape:document-units="px"
     inkscape:current-layer="g4265"
     showgrid="false"
     units="px"
     inkscape:window-width="1350"
     inkscape:window-height="998"
     inkscape:window-x="737"
     inkscape:window-y="190"
     inkscape:window-maximized="0" />
  <metadata
     id="metadata3351">
    <rdf:RDF>
      <cc:Work
         rdf:about="">
        <dc:format>image/svg+xml</dc:format>
        <dc:type
           rdf:resource="http://purl.org/dc/dcmitype/StillImage" />
        <dc:title></dc:title>
      </cc:Work>
    </rdf:RDF>
  </metadata>
  <g
     inkscape:label="Background"
     inkscape:groupmode="layer"
     id="layer1"
     transform="translate(0,-972.36216)"
     style="display:inline">
    <rect
       style="opacity:1;fill:#000000;fill-opacity:1;stroke:none;stroke-width:0;stroke-miterlimit:4;stroke-dasharray:none;stroke-opacity:0.39215686"
       id="rect4337"
       width="120"
       height="80"
       x="0"
       y="972.36218" />
  </g>
  <g
     inkscape:groupmode="layer"
     id="layer2"
     inkscape:label="Image">
    <g
       transform="translate(0,-972.36216)"
       style="display:inline"
       id="g4265">
      <g
         id="g4339"
         transform="translate(-3.15368,-6.2861325)"
         style="fill:#ffffff;fill-opacity:1">
        <path
           inkscape:connector-curvature="0"
           style="fill:#ffffff;fill-opacity:1;fill-rule:evenodd;stroke:none;stroke-width:1px;stroke-linecap:butt;stroke-linejoin:miter;stroke-opacity:0.39215686"
           d="m 67.041016,21.316406 -5.052735,1.748047 -4.27539,3.109375 -0.970703,2.136719 0,34.783203 2.914062,4.857422 4.46875,3.109375 6.607422,0.195312 7.773437,-0.195312 4.857422,-1.748047 6.800781,-3.498047 4.275391,-4.080078 4.275391,-6.023437 1.748046,-5.052735 0,-6.21875 -1.943359,-6.607422 -3.109375,-5.634765 -5.828125,-5.634766 -5.052734,-3.691406 -6.800781,-1.554688 -10.6875,0 z m 5.828125,4.857422 8.162109,1.359375 5.830078,4.275391 4.275391,3.886718 2.914062,5.830079 0.388672,6.216797 -1.361328,5.248046 -4.273437,5.439454 -5.248047,4.082031 -5.050782,2.332031 -6.21875,0.777344 -5.634765,0 -5.248047,-2.720703 0.388672,-34.00586 4.859375,-2.138672 6.216797,-0.582031 z"
           transform="translate(0,972.36216)"
           id="path3448" />
        <path
           style="fill:#ffffff;fill-opacity:1;fill-rule:evenodd;stroke:none;stroke-width:1px;stroke-linecap:butt;stroke-linejoin:miter;stroke-opacity:1"
           d="m 25.84447,1009.1261 25.650151,-6.704 0,4.7608 -25.552991,6.704 z"
           id="path4257"
           inkscape:connector-curvature="0" />
        <path
           inkscape:connector-curvature="0"
           id="path4259"
           d="m 26.038789,1018.0648 25.650151,-6.704 0,4.7608 -25.552991,6.704 z"
           style="fill:#ffffff;fill-opacity:1;fill-rule:evenodd;stroke:none;stroke-width:1px;stroke-linecap:butt;stroke-linejoin:miter;stroke-opacity:1" />
        <path
           style="fill:#ffffff;fill-opacity:1;fill-rule:evenodd;stroke:none;stroke-width:1px;stroke-linecap:butt;stroke-linejoin:miter;stroke-opacity:1"
           d="m 26.038789,1026.6149 25.650151,-6.704 0,4.7608 -25.552991,6.704 z"
           id="path4261"
           inkscape:connector-curvature="0" />
        <path
           inkscape:connector-curvature="0"
           id="path4263"
           d="m 25.941629,1035.8451 25.650151,-6.704 0,4.7608 -25.552991,6.704 z"
           style="fill:#ffffff;fill-opacity:1;fill-rule:evenodd;stroke:none;stroke-width:1px;stroke-linecap:butt;stroke-linejoin:miter;stroke-opacity:1" />
      </g>
    </g>
  </g>
</svg>
