<?xml version="1.0" encoding="UTF-8" standalone="no"?>
<!-- Created with Inkscape (http://www.inkscape.org/) -->

<svg
   xmlns:dc="http://purl.org/dc/elements/1.1/"
   xmlns:cc="http://creativecommons.org/ns#"
   xmlns:rdf="http://www.w3.org/1999/02/22-rdf-syntax-ns#"
   xmlns:svg="http://www.w3.org/2000/svg"
   xmlns="http://www.w3.org/2000/svg"
   xmlns:sodipodi="http://sodipodi.sourceforge.net/DTD/sodipodi-0.dtd"
   xmlns:inkscape="http://www.inkscape.org/namespaces/inkscape"
   id="svg4848"
   version="1.1"
   inkscape:version="0.91 r13725"
   width="120"
   height="80"
   viewBox="0 0 120 80"
   sodipodi:docname="fuel.svg">
  <metadata
     id="metadata4854">
    <rdf:RDF>
      <cc:Work
         rdf:about="">
        <dc:format>image/svg+xml</dc:format>
        <dc:type
           rdf:resource="http://purl.org/dc/dcmitype/StillImage" />
        <dc:title></dc:title>
      </cc:Work>
    </rdf:RDF>
  </metadata>
  <defs
     id="defs4852" />
  <sodipodi:namedview
     pagecolor="#ffffff"
     bordercolor="#666666"
     borderopacity="1"
     objecttolerance="10"
     gridtolerance="10"
     guidetolerance="10"
     inkscape:pageopacity="0"
     inkscape:pageshadow="2"
     inkscape:window-width="1381"
     inkscape:window-height="1082"
     id="namedview4850"
     showgrid="false"
     inkscape:zoom="8.3599756"
     inkscape:cx="57.715297"
     inkscape:cy="40.415357"
     inkscape:window-x="841"
     inkscape:window-y="361"
     inkscape:window-maximized="0"
     inkscape:current-layer="layer8" />
  <g
     inkscape:groupmode="layer"
     id="layer8"
     inkscape:label="background">
    <rect
       style="opacity:1;fill:#000000;fill-opacity:1;stroke:none;stroke-width:0;stroke-miterlimit:4;stroke-dasharray:none;stroke-opacity:0.39215686"
       id="rect10851"
       width="120"
       height="80"
       x="0"
       y="-2.220446e-15" />
  </g>
  <g
     inkscape:groupmode="layer"
     id="layer7"
     inkscape:label="image">
    <path
       style="fill:#ffab00;fill-opacity:1;fill-rule:evenodd;stroke:none;stroke-width:1px;stroke-linecap:butt;stroke-linejoin:miter;stroke-opacity:1"
       d="M 37.033203,10.574219 35,13.085937 l 0.597656,52.75 -2.392578,0 0,3.46875 37.082031,0.121094 0,-3.708984 -2.152344,-0.119141 0.238282,-28.58789 1.316406,0.478515 1.195312,2.152344 0.478516,2.990234 -0.119141,16.386719 0.957032,2.751953 1.316406,1.914063 1.673828,1.435546 2.511719,0.716797 2.990234,-0.478515 2.273438,-1.554688 1.435546,-2.511718 0.357422,-3.34961 0,-27.271484 1.794922,-1.197266 0.240235,-4.425781 -3.46875,-4.664063 -2.632813,-2.632812 -4.185547,-3.587891 -4.1875,-2.630859 -2.871093,-0.837891 0,1.316407 3.947265,4.066406 6.101563,7.05664 1.195312,2.751954 -0.11914,4.066406 0.83789,1.794922 -0.121094,27.033203 -0.238281,1.794922 -0.837891,0.716797 -1.792968,0.957031 -2.273438,-0.716797 -1.076172,-1.675781 -0.478515,-3.109375 -0.121094,-9.330078 0,-7.775391 -0.955078,-2.871094 -2.154297,-1.914062 -1.914062,-1.316407 -1.076172,-0.11914 0.238281,-21.052735 -1.912109,-1.673828 -29.666016,-0.11914 z m 2.152344,5.142578 25.83789,0.11914 0,18.660157 -25.83789,0 0,-18.779297 z"
       id="path10843"
       inkscape:connector-curvature="0" />
  </g>
</svg>
